<?xml version="1.0" encoding="utf-8"?>
<!-- Generator: Adobe Illustrator 26.0.2, SVG Export Plug-In . SVG Version: 6.00 Build 0)  -->
<svg version="1.1" id="Layer_1" xmlns="http://www.w3.org/2000/svg" xmlns:xlink="http://www.w3.org/1999/xlink" x="0px" y="0px"
	 viewBox="0 0 200 200" style="enable-background:new 0 0 200 200;" xml:space="preserve">
<style type="text/css">
	.st0{fill:#1D1D1D;}
</style>
<g>
	<g>
		<path class="st0" d="M91.2,98.71c-11.76,0-21.33-9.57-21.33-21.33s9.57-21.33,21.33-21.33s21.33,9.57,21.33,21.33
			S102.96,98.71,91.2,98.71z M91.2,60.58c-9.26,0-16.8,7.54-16.8,16.8s7.54,16.8,16.8,16.8s16.8-7.54,16.8-16.8
			S100.46,60.58,91.2,60.58z"/>
	</g>
	<g>
		<path class="st0" d="M108.84,143.95H46.03v-3.6c0-5.66,2.36-11.12,6.47-14.96c8.74-8.17,25.3-17.78,54.48-17.13l-0.1,4.53
			c-29.13-0.63-44.63,9.7-51.28,15.91c-2.97,2.77-4.76,6.64-5,10.71h58.25V143.95z"/>
	</g>
	<g>
		<polygon class="st0" points="121.82,141.77 104.91,124.56 107.82,121.69 121.76,135.87 151,104.7 153.97,107.49 		"/>
	</g>
</g>
</svg>
