<?xml version="1.0" encoding="utf-8"?>
<!-- Generator: Adobe Illustrator 26.0.2, SVG Export Plug-In . SVG Version: 6.00 Build 0)  -->
<svg version="1.1" id="Layer_1" xmlns="http://www.w3.org/2000/svg" xmlns:xlink="http://www.w3.org/1999/xlink" x="0px" y="0px"
	 viewBox="0 0 200 200" style="enable-background:new 0 0 200 200;" xml:space="preserve">
<style type="text/css">
	.st0{fill:#1D1D1D;}
</style>
<g>
	<g>
		<rect x="82.52" y="82.96" class="st0" width="60.21" height="3.24"/>
	</g>
	<g>
		<rect x="82.52" y="94" class="st0" width="60.21" height="3.24"/>
	</g>
	<g>
		<rect x="82.52" y="105.04" class="st0" width="60.21" height="3.24"/>
	</g>
	<g>
		<rect x="82.52" y="116.08" class="st0" width="60.21" height="3.24"/>
	</g>
	<g>
		<path class="st0" d="M147.08,140.62h-73.8c-3.9,0-7.08-3.17-7.08-7.08v-29.25l-19-19c-0.46-0.46-0.6-1.16-0.35-1.76
			c0.25-0.6,0.84-1,1.5-1h20.71V65.72c0-3.9,3.17-7.08,7.08-7.08h70.94c3.9,0,7.08,3.17,7.08,7.08v67.82
			C154.15,137.44,150.98,140.62,147.08,140.62z M52.25,85.77l16.71,16.71c0.3,0.3,0.47,0.72,0.47,1.14v29.92
			c0,2.12,1.72,3.84,3.84,3.84h73.8c2.12,0,3.84-1.72,3.84-3.84V65.72c0-2.12-1.72-3.84-3.84-3.84H76.13
			c-2.12,0-3.84,1.72-3.84,3.84v18.42c0,0.89-0.72,1.62-1.62,1.62H52.25z"/>
	</g>
</g>
</svg>
