<?xml version="1.0" encoding="utf-8"?>
<!-- Generator: Adobe Illustrator 26.0.2, SVG Export Plug-In . SVG Version: 6.00 Build 0)  -->
<svg version="1.1" id="Layer_1" xmlns="http://www.w3.org/2000/svg" xmlns:xlink="http://www.w3.org/1999/xlink" x="0px" y="0px"
	 viewBox="0 0 200 200" style="enable-background:new 0 0 200 200;" xml:space="preserve">
<style type="text/css">
	.st0{fill:#1D1D1D;}
</style>
<g>
	<g>
		<path class="st0" d="M70.57,100.34l40.81-23.56v47.12L70.57,100.34z"/>
	</g>
	<g>
		<path class="st0" d="M100.37,148.45c-26.92,0-48.82-21.9-48.82-48.82c0-26.92,21.9-48.82,48.82-48.82
			c26.92,0,48.82,21.9,48.82,48.82C149.2,126.55,127.29,148.45,100.37,148.45z M100.37,54.88c-24.68,0-44.75,20.08-44.75,44.76
			c0,24.68,20.08,44.75,44.75,44.75c24.68,0,44.76-20.08,44.76-44.75C145.13,74.95,125.05,54.88,100.37,54.88z"/>
	</g>
</g>
</svg>
