<?xml version="1.0" encoding="utf-8"?>
<!-- Generator: Adobe Illustrator 26.0.2, SVG Export Plug-In . SVG Version: 6.00 Build 0)  -->
<svg version="1.1" id="Layer_1" xmlns="http://www.w3.org/2000/svg" xmlns:xlink="http://www.w3.org/1999/xlink" x="0px" y="0px"
	 viewBox="0 0 200 200" style="enable-background:new 0 0 200 200;" xml:space="preserve">
<style type="text/css">
	.st0{fill:#1D1D1D;}
</style>
<g>
	<g>
		<path class="st0" d="M145.31,149.28H55.9c-4.73,0-8.57-3.85-8.57-8.57l-0.46-82.14c0,0,0-0.01,0-0.01c0-4.73,3.85-8.57,8.57-8.57
			h89.86c4.73,0,8.57,3.85,8.57,8.57v82.16C153.88,145.44,150.03,149.28,145.31,149.28z M50.79,58.55l0.46,82.15
			c0,2.58,2.09,4.66,4.65,4.66h89.4c2.56,0,4.65-2.09,4.65-4.65V58.55c0-2.56-2.09-4.65-4.65-4.65H55.44
			C52.88,53.9,50.79,55.99,50.79,58.55z"/>
	</g>
	<polygon class="st0" points="84.64,114.28 81.77,111.5 59.8,134.19 59.8,113.59 55.8,113.59 55.8,141.14 83.65,141.14 
		83.65,137.14 62.52,137.14 	"/>
	<polygon class="st0" points="111.95,88.42 114.82,91.21 136.8,68.51 136.8,89.12 140.8,89.12 140.8,61.57 112.95,61.57 
		112.95,65.57 134.08,65.57 	"/>
</g>
</svg>
