<?xml version="1.0" encoding="utf-8"?>
<!-- Generator: Adobe Illustrator 26.0.2, SVG Export Plug-In . SVG Version: 6.00 Build 0)  -->
<svg version="1.1" id="Layer_1" xmlns="http://www.w3.org/2000/svg" xmlns:xlink="http://www.w3.org/1999/xlink" x="0px" y="0px"
	 viewBox="0 0 200 200" style="enable-background:new 0 0 200 200;" xml:space="preserve">
<style type="text/css">
	.st0{fill-rule:evenodd;clip-rule:evenodd;fill:#1D1D1D;}
</style>
<path class="st0" d="M118.87,102.23c0.97,0.65,1.78,1.3,2.59,1.78c4.06,3.25,6.49,7.3,6.49,11.68c0,5.03-3.08,9.57-8.11,12.82
	c-5.03,3.24-11.84,5.36-19.47,5.36c-7.63,0-14.45-2.11-19.47-5.36c-5.03-3.25-8.12-7.79-8.12-12.82c0-4.38,2.44-8.44,6.49-11.68
	c0.81-0.49,1.79-1.13,2.76-1.78c-0.49,0.97-0.81,1.78-1.13,2.76c-2.92,2.6-4.54,5.68-4.54,9.09c0,4.22,2.59,8.11,6.98,11.03
	c4.38,2.76,10.39,4.55,17.04,4.55s12.66-1.79,17.04-4.55c4.38-2.92,6.98-6.81,6.98-11.03c0-3.41-1.63-6.49-4.38-9.09
	C119.52,104.01,119.2,103.2,118.87,102.23L118.87,102.23z M148.73,84.22c0.65,0.32,1.14,0.65,1.62,0.97
	c2.27,1.79,3.73,4.22,3.73,6.65c0,2.92-1.79,5.52-4.71,7.3c-2.76,1.94-6.81,3.08-11.04,3.08c-4.38,0-8.43-1.14-11.2-3.08
	c-2.92-1.79-4.71-4.38-4.71-7.3c0-2.43,1.46-4.87,3.73-6.65c0.49-0.32,0.97-0.65,1.62-0.97c-0.32,0.49-0.49,0.97-0.65,1.46
	c-1.62,1.46-2.59,3.25-2.59,5.19c0,2.43,1.46,4.71,3.89,6.33c2.6,1.62,6,2.6,9.9,2.6c3.73,0,7.14-0.98,9.74-2.6
	c2.43-1.62,3.89-3.89,3.89-6.33c0-1.95-0.97-3.73-2.59-5.19C149.22,85.19,149.06,84.7,148.73,84.22L148.73,84.22z M73.11,84.22
	c0.49,0.32,0.97,0.65,1.46,0.97c2.28,1.79,3.73,4.22,3.73,6.65c0,2.92-1.78,5.52-4.71,7.3c-2.76,1.94-6.82,3.08-11.03,3.08
	c-4.38,0-8.28-1.14-11.2-3.08c-2.92-1.79-4.71-4.38-4.71-7.3c0-2.43,1.46-4.87,3.73-6.65c0.49-0.32,0.98-0.65,1.63-0.97
	c-0.32,0.49-0.49,0.97-0.65,1.46c-1.63,1.46-2.6,3.25-2.6,5.19c0,2.43,1.46,4.71,4.06,6.33c2.43,1.62,5.84,2.6,9.74,2.6
	c3.73,0,7.14-0.98,9.73-2.6c2.43-1.62,3.9-3.89,3.9-6.33c0-1.95-0.81-3.73-2.44-5.19C73.43,85.19,73.27,84.7,73.11,84.22
	L73.11,84.22z M62.57,77.73c5.51,0,8.44,4.87,10.22,10.22l1.3,4.22c0.32,0.81-0.65,1.46-1.46,1.46H52.34
	c-0.81,0-1.62-0.65-1.46-1.46l1.46-4.22C53.96,82.59,56.89,77.73,62.57,77.73L62.57,77.73z M62.57,65.39c2.92,0,5.35,2.43,5.35,5.52
	c0,2.92-2.43,5.35-5.35,5.35c-3.09,0-5.52-2.43-5.52-5.35C57.05,67.82,59.48,65.39,62.57,65.39L62.57,65.39z M138.35,77.73
	c5.52,0,8.44,4.87,10.23,10.22l1.3,4.22c0.16,0.81-0.65,1.46-1.46,1.46h-20.29c-0.81,0-1.62-0.65-1.46-1.46l1.3-4.22
	C129.75,82.59,132.67,77.73,138.35,77.73L138.35,77.73z M138.35,65.39c2.92,0,5.36,2.43,5.36,5.52c0,2.92-2.44,5.35-5.36,5.35
	c-3.09,0-5.52-2.43-5.52-5.35C132.83,67.82,135.26,65.39,138.35,65.39L138.35,65.39z M100.38,90.87c9.9,0,14.93,8.6,17.85,18.01
	l2.43,7.3c0.49,1.3-1.13,2.6-2.43,2.6h-35.7c-1.3,0-2.76-1.3-2.44-2.6l2.44-7.3C85.44,99.47,90.47,90.87,100.38,90.87L100.38,90.87z
	 M100.38,69.61c5.19,0,9.57,4.22,9.57,9.41c0,5.19-4.38,9.41-9.57,9.41c-5.19,0-9.41-4.22-9.41-9.41
	C90.96,73.83,95.18,69.61,100.38,69.61L100.38,69.61z"/>
</svg>
