<?xml version="1.0" encoding="utf-8"?>
<!-- Generator: Adobe Illustrator 26.0.2, SVG Export Plug-In . SVG Version: 6.00 Build 0)  -->
<svg version="1.1" id="Layer_1" xmlns="http://www.w3.org/2000/svg" xmlns:xlink="http://www.w3.org/1999/xlink" x="0px" y="0px"
	 viewBox="0 0 200 200" style="enable-background:new 0 0 200 200;" xml:space="preserve">
<style type="text/css">
	.st0{fill:#1D1D1D;}
</style>
<g>
	<g>
		<path class="st0" d="M100.45,49.96c-22.9,0-42.22,15.59-47.94,36.71h4.27c5.6-18.82,23.06-32.58,43.66-32.58
			c25.11,0,45.54,20.43,45.54,45.54c0,25.1-20.43,45.53-45.54,45.53c-19,0-35.3-11.7-42.12-28.26h-4.45
			c7.03,18.9,25.25,32.4,46.57,32.4c27.39,0,49.67-22.28,49.67-49.67S127.84,49.96,100.45,49.96z"/>
	</g>
	<path class="st0" d="M110.82,101.42l-17.8,20.02l-2.99-2.66l13.54-15.22h-52.8c-0.09-1.25-0.14-2.51-0.14-3.79v-0.21h52.28
		L88.16,85.93l2.71-2.94L110.82,101.42z"/>
</g>
</svg>
