<?xml version="1.0" encoding="utf-8"?>
<!-- Generator: Adobe Illustrator 26.0.2, SVG Export Plug-In . SVG Version: 6.00 Build 0)  -->
<svg version="1.1" id="Layer_1" xmlns="http://www.w3.org/2000/svg" xmlns:xlink="http://www.w3.org/1999/xlink" x="0px" y="0px"
	 viewBox="0 0 200 200" style="enable-background:new 0 0 200 200;" xml:space="preserve">
<style type="text/css">
	.st0{fill-rule:evenodd;clip-rule:evenodd;fill:#1D1D1D;}
	.st1{fill:#1D1D1D;}
</style>
<g>
	<g>
		<circle class="st0" cx="79.3" cy="99.14" r="7.13"/>
		<circle class="st0" cx="99.34" cy="99.39" r="7.13"/>
		<circle class="st0" cx="119.39" cy="99.63" r="7.13"/>
	</g>
	<g>
		<path class="st1" d="M100.37,149.47c-27.48,0-49.84-22.36-49.84-49.84c0-27.48,22.36-49.84,49.84-49.84
			c27.48,0,49.84,22.36,49.84,49.84C150.22,127.11,127.86,149.47,100.37,149.47z M100.37,53.94c-25.19,0-45.69,20.5-45.69,45.69
			c0,25.19,20.5,45.69,45.69,45.69c25.19,0,45.69-20.5,45.69-45.69C146.06,74.44,125.57,53.94,100.37,53.94z"/>
	</g>
</g>
</svg>
