<?xml version="1.0" encoding="utf-8"?>
<!-- Generator: Adobe Illustrator 26.0.2, SVG Export Plug-In . SVG Version: 6.00 Build 0)  -->
<svg version="1.1" id="Layer_1" xmlns="http://www.w3.org/2000/svg" xmlns:xlink="http://www.w3.org/1999/xlink" x="0px" y="0px"
	 viewBox="0 0 200 200" style="enable-background:new 0 0 200 200;" xml:space="preserve">
<style type="text/css">
	.st0{fill:#1D1D1D;}
</style>
<g>
	<g>
		<path class="st0" d="M87.98,123.12V76.14l41.18,23.49L87.98,123.12z"/>
	</g>
	<g>
		<path class="st0" d="M100.37,148.9c-27.16,0-49.26-22.1-49.26-49.26c0-27.16,22.1-49.26,49.26-49.26
			c27.16,0,49.27,22.1,49.27,49.26C149.64,126.8,127.54,148.9,100.37,148.9z M100.37,54.47c-24.9,0-45.16,20.26-45.16,45.16
			c0,24.9,20.26,45.16,45.16,45.16c24.9,0,45.16-20.26,45.16-45.16C145.54,74.73,125.28,54.47,100.37,54.47z"/>
	</g>
</g>
</svg>
