<?xml version="1.0" encoding="utf-8"?>
<!-- Generator: Adobe Illustrator 26.0.2, SVG Export Plug-In . SVG Version: 6.00 Build 0)  -->
<svg version="1.1" id="Layer_1" xmlns="http://www.w3.org/2000/svg" xmlns:xlink="http://www.w3.org/1999/xlink" x="0px" y="0px"
	 viewBox="0 0 200 200" style="enable-background:new 0 0 200 200;" xml:space="preserve">
<style type="text/css">
	.st0{fill:#1D1D1D;}
</style>
<g>
	<g>
		<g>
			<path class="st0" d="M100.38,50.01c-27.36,0-49.62,22.26-49.62,49.62s22.26,49.62,49.62,49.62c6.34,0,12.41-1.2,18-3.39v-4.47
				c-5.52,2.39-11.61,3.72-18,3.72c-25.09,0-45.5-20.4-45.5-45.49s20.41-45.49,45.5-45.49s45.49,20.4,45.49,45.49
				c0,11.74-4.48,22.45-11.81,30.53v5.86c9.79-9.07,15.95-22.01,15.95-36.39C150,72.27,127.74,50.01,100.38,50.01z"/>
		</g>
	</g>
	<path class="st0" d="M127.38,109.89v31.69c-1.29,0.86-2.63,1.65-4,2.38v-34.07c0-5.82-4.73-10.55-10.55-10.55H86.85l12.54,10.58
		l-2.58,3.06l-18.3-15.45L94.7,79.69l2.96,2.69L85.9,95.34h26.93C120.85,95.34,127.38,101.87,127.38,109.89z"/>
</g>
</svg>
