<?xml version="1.0" encoding="utf-8"?>
<!-- Generator: Adobe Illustrator 26.0.2, SVG Export Plug-In . SVG Version: 6.00 Build 0)  -->
<svg version="1.1" id="Layer_1" xmlns="http://www.w3.org/2000/svg" xmlns:xlink="http://www.w3.org/1999/xlink" x="0px" y="0px"
	 viewBox="0 0 200 200" style="enable-background:new 0 0 200 200;" xml:space="preserve">
<style type="text/css">
	.st0{fill:#1D1D1D;}
</style>
<g>
	<g>
		<path class="st0" d="M144.97,148.91H56.24c-4.69,0-8.51-3.82-8.51-8.51l-0.46-81.53c0,0,0-0.01,0-0.01c0-4.69,3.82-8.51,8.51-8.51
			h89.19c4.69,0,8.51,3.82,8.51,8.51v81.54C153.48,145.09,149.66,148.91,144.97,148.91z M51.16,58.86l0.46,81.54
			c0,2.56,2.07,4.63,4.62,4.63h88.74c2.55,0,4.62-2.07,4.62-4.62V58.86c0-2.55-2.07-4.62-4.62-4.62H55.78
			C53.23,54.24,51.16,56.31,51.16,58.86z"/>
	</g>
	<g>
		<rect x="70.59" y="68.12" class="st0" width="61.37" height="3.75"/>
	</g>
	<g>
		<rect x="59.03" y="81.54" class="st0" width="84.5" height="3.75"/>
	</g>
</g>
</svg>
