<?xml version="1.0" encoding="utf-8"?>
<!-- Generator: Adobe Illustrator 26.0.2, SVG Export Plug-In . SVG Version: 6.00 Build 0)  -->
<svg version="1.1" id="Layer_1" xmlns="http://www.w3.org/2000/svg" xmlns:xlink="http://www.w3.org/1999/xlink" x="0px" y="0px"
	 viewBox="0 0 200 200" style="enable-background:new 0 0 200 200;" xml:space="preserve">
<style type="text/css">
	.st0{fill:#1D1D1D;}
</style>
<g>
	<g>
		<path class="st0" d="M145.62,146.74H55.14c-4.67,0-8.47-3.8-8.47-8.47V60.99c0-4.67,3.8-8.47,8.47-8.47h25.08
			c2.8,0,5.54,0.78,7.91,2.26l8.67,5.38c1.15,0.71,2.47,1.09,3.82,1.09h45c4.67,0,8.47,3.8,8.47,8.47v68.55
			C154.09,142.94,150.29,146.74,145.62,146.74z M55.14,56.29c-2.59,0-4.7,2.11-4.7,4.7v77.28c0,2.59,2.11,4.7,4.7,4.7h90.48
			c2.59,0,4.7-2.11,4.7-4.7V69.72c0-2.59-2.11-4.7-4.7-4.7h-45c-2.05,0-4.06-0.57-5.81-1.66l-8.67-5.38
			c-1.78-1.11-3.83-1.69-5.92-1.69H55.14z"/>
	</g>
	<g>
		<rect x="65.29" y="84.62" class="st0" width="70.16" height="3.77"/>
	</g>
	<g>
		<rect x="65.29" y="97.49" class="st0" width="70.16" height="3.77"/>
	</g>
	<g>
		<rect x="65.29" y="110.35" class="st0" width="70.16" height="3.77"/>
	</g>
	<g>
		<rect x="65.29" y="123.22" class="st0" width="70.16" height="3.77"/>
	</g>
</g>
</svg>
