<?xml version="1.0" encoding="utf-8"?>
<!-- Generator: Adobe Illustrator 26.0.2, SVG Export Plug-In . SVG Version: 6.00 Build 0)  -->
<svg version="1.1" id="Layer_1" xmlns="http://www.w3.org/2000/svg" xmlns:xlink="http://www.w3.org/1999/xlink" x="0px" y="0px"
	 viewBox="0 0 200 200" style="enable-background:new 0 0 200 200;" xml:space="preserve">
<style type="text/css">
	.st0{fill:#1D1D1D;}
</style>
<g>
	<g>
		<g>
			<rect x="109.35" y="81.64" class="st0" width="36.97" height="3.2"/>
		</g>
		<g>
			<rect x="109.35" y="92.57" class="st0" width="36.97" height="3.2"/>
		</g>
		<g>
			<rect x="109.35" y="103.49" class="st0" width="36.97" height="3.2"/>
		</g>
		<g>
			<rect x="109.35" y="114.42" class="st0" width="36.97" height="3.2"/>
		</g>
	</g>
	<g>
		<g>
			<path class="st0" d="M93.05,105.88h-5.6c0,9.53-7.76,17.29-17.29,17.29s-17.29-7.76-17.29-17.29h-5.6
				c0,11.66,8.8,21.2,20.09,22.6v10.43h5.6v-10.43C84.25,127.08,93.05,117.54,93.05,105.88z"/>
			<path class="st0" d="M69.56,119.32L69.56,119.32c-5.8,0-10.49-4.7-10.49-10.49V93.73c0-5.8,4.7-10.49,10.49-10.49h0
				c5.8,0,10.49,4.7,10.49,10.49v15.09C80.06,114.62,75.36,119.32,69.56,119.32z"/>
		</g>
		<g>
			<path class="st0" d="M146.32,58.92H72.9c-3.94,0-7.15,3.21-7.15,7.15v0.01l0.05,9.46h3.5l-0.05-9.47c0-2.01,1.64-3.65,3.65-3.65
				h73.42c2.01,0,3.65,1.64,3.65,3.65v67.12c0,2.01-1.64,3.65-3.65,3.65H82.81v3.5h63.52c3.94,0,7.15-3.21,7.15-7.15V66.07
				C153.48,62.13,150.27,58.92,146.32,58.92z"/>
		</g>
	</g>
</g>
</svg>
