<?xml version="1.0" encoding="utf-8"?>
<!-- Generator: Adobe Illustrator 26.0.2, SVG Export Plug-In . SVG Version: 6.00 Build 0)  -->
<svg version="1.1" id="Layer_1" xmlns="http://www.w3.org/2000/svg" xmlns:xlink="http://www.w3.org/1999/xlink" x="0px" y="0px"
	 viewBox="0 0 200 200" style="enable-background:new 0 0 200 200;" xml:space="preserve">
<style type="text/css">
	.st0{fill:#1D1D1D;}
</style>
<g>
	<g>
		<g>
			<path class="st0" d="M100.37,148.9c-27.16,0-49.26-22.1-49.26-49.26c0-27.16,22.1-49.26,49.26-49.26
				c27.16,0,49.27,22.1,49.27,49.26C149.64,126.8,127.54,148.9,100.37,148.9z M100.37,54.47c-24.9,0-45.16,20.26-45.16,45.16
				c0,24.9,20.26,45.16,45.16,45.16c24.9,0,45.16-20.26,45.16-45.16C145.54,74.73,125.28,54.47,100.37,54.47z"/>
		</g>
	</g>
	<g>
		<rect x="99" y="53.71" class="st0" width="4.04" height="12.6"/>
	</g>
	<g>
		<rect x="98.36" y="134.9" class="st0" width="4.04" height="12.6"/>
	</g>
	<g>
		<rect x="53.64" y="96.4" class="st0" width="12.6" height="4.04"/>
	</g>
	<g>
		<g>
			<rect x="135.59" y="97.61" class="st0" width="12.6" height="4.04"/>
		</g>
	</g>
	<g>
		<circle class="st0" cx="102.85" cy="101.71" r="6.05"/>
	</g>
	<g>
		<path class="st0" d="M98.57,102.43c-0.32,0-0.64-0.1-0.91-0.31L73.87,84.15c-0.67-0.5-0.8-1.45-0.29-2.12
			c0.5-0.67,1.45-0.8,2.12-0.29l23.79,17.98c0.67,0.5,0.8,1.45,0.29,2.12C99.48,102.23,99.03,102.43,98.57,102.43z"/>
	</g>
	<g>
		<path class="st0" d="M105.41,103.23c-0.49,0-0.98-0.24-1.27-0.69c-0.46-0.7-0.26-1.64,0.44-2.1l16.26-10.6
			c0.7-0.46,1.64-0.26,2.1,0.44c0.46,0.7,0.26,1.64-0.44,2.1l-16.26,10.6C105.98,103.15,105.69,103.23,105.41,103.23z"/>
	</g>
</g>
</svg>
